<svg width="434" height="27" viewBox="0 0 434 27" fill="none" xmlns="http://www.w3.org/2000/svg">
<path d="M16.8294 0V25.5638H12.3987V14.2899H4.53785V25.5638H0V0H4.53785V10.0891H12.3987V0H16.8294Z" fill="white"/>
<path d="M72.5915 24.6662L64.7306 27L59.4424 13.2128L51.6888 25.7793H46.8293L57.6559 7.79122L56.441 4.2367H52.2247V0H59.4424L67.732 21.6862L71.3766 20.4654L72.5915 24.6662Z" fill="white"/>
<path d="M114.058 21.363H126.635V25.492H109.591V0H113.701H114.058V21.363Z" fill="white"/>
<path d="M184.962 0H185.32V4.2008H176.172V10.1609H183.569V14.2899H176.172V25.5279H171.635V0H184.962Z" fill="white"/>
<path d="M211 11H222.934V15.3444H211V11Z" fill="white"/>
<path d="M254.72 21.363H267.297V25.492H250.254V0H254.362H254.72V21.363Z" fill="white"/>
<path d="M307.297 0H311.334H311.727V25.5638H307.297V0Z" fill="white"/>
<path d="M374.054 0H374.411V4.2008H365.264V10.1609H372.661V14.2899H365.264V25.5279H360.727V0H374.054Z" fill="white"/>
<path d="M433.419 21.3989V25.5279H417.411V0H432.597H432.954V4.16489H421.878V10.0891H431.49V14.2899H421.878V21.3989H433.419Z" fill="white"/>
</svg>
